<mxfile host="app.diagrams.net" modified="2024-07-25T08:02:09.108Z" agent="Mozilla/5.0 (Windows NT 10.0; Win64; x64) AppleWebKit/537.36 (KHTML, like Gecko) Chrome/126.0.0.0 Safari/537.36" etag="BkiQh5bid6mabe31Cydp" version="24.7.2" type="github">
  <diagram id="R2lEEEUBdFMjLlhIrx00" name="Page-1">
    <mxGraphModel dx="2100" dy="1044" grid="1" gridSize="10" guides="1" tooltips="1" connect="1" arrows="1" fold="1" page="1" pageScale="1" pageWidth="850" pageHeight="1100" math="0" shadow="0" extFonts="Permanent Marker^https://fonts.googleapis.com/css?family=Permanent+Marker">
      <root>
        <mxCell id="0" />
        <mxCell id="1" parent="0" />
        <mxCell id="GKdVHdzbGyq1zqF9Dv50-1" value="appointment" style="html=1;dashed=0;whiteSpace=wrap;fontSize=21;fontStyle=1" vertex="1" parent="1">
          <mxGeometry x="1170" y="1487.5" width="180" height="90" as="geometry" />
        </mxCell>
        <mxCell id="GKdVHdzbGyq1zqF9Dv50-2" value="contract" style="html=1;dashed=0;whiteSpace=wrap;fontSize=21;fontStyle=1" vertex="1" parent="1">
          <mxGeometry x="360" y="1322.5" width="195" height="90" as="geometry" />
        </mxCell>
        <mxCell id="GKdVHdzbGyq1zqF9Dv50-3" value="contract_extend" style="html=1;dashed=0;whiteSpace=wrap;fontSize=21;fontStyle=1" vertex="1" parent="1">
          <mxGeometry x="200" y="1502.5" width="180" height="105" as="geometry" />
        </mxCell>
        <mxCell id="GKdVHdzbGyq1zqF9Dv50-4" value="hostel" style="html=1;dashed=0;whiteSpace=wrap;fontSize=21;fontStyle=1" vertex="1" parent="1">
          <mxGeometry x="1460" y="945" width="180" height="80" as="geometry" />
        </mxCell>
        <mxCell id="GKdVHdzbGyq1zqF9Dv50-5" value="hostel_type" style="html=1;dashed=0;whiteSpace=wrap;fontSize=21;fontStyle=1" vertex="1" parent="1">
          <mxGeometry x="1385" y="675" width="185" height="105" as="geometry" />
        </mxCell>
        <mxCell id="GKdVHdzbGyq1zqF9Dv50-6" value="hostel_utilities" style="html=1;dashed=0;whiteSpace=wrap;fontSize=21;fontStyle=1" vertex="1" parent="1">
          <mxGeometry x="1815" y="930" width="180" height="110" as="geometry" />
        </mxCell>
        <mxCell id="GKdVHdzbGyq1zqF9Dv50-7" value="payment_invoice" style="html=1;dashed=0;whiteSpace=wrap;fontSize=21;fontStyle=1" vertex="1" parent="1">
          <mxGeometry x="900" y="835" width="220" height="110" as="geometry" />
        </mxCell>
        <mxCell id="GKdVHdzbGyq1zqF9Dv50-8" value="payment_invoice_detail" style="html=1;dashed=0;whiteSpace=wrap;fontSize=21;fontStyle=1" vertex="1" parent="1">
          <mxGeometry x="845" y="610" width="260" height="140" as="geometry" />
        </mxCell>
        <mxCell id="GKdVHdzbGyq1zqF9Dv50-9" value="picture" style="html=1;dashed=0;whiteSpace=wrap;fontSize=21;fontStyle=1" vertex="1" parent="1">
          <mxGeometry x="1080" y="1205" width="180" height="80" as="geometry" />
        </mxCell>
        <mxCell id="GKdVHdzbGyq1zqF9Dv50-10" value="rate" style="html=1;dashed=0;whiteSpace=wrap;fontSize=21;fontStyle=1" vertex="1" parent="1">
          <mxGeometry x="1430" y="1492.5" width="150" height="80" as="geometry" />
        </mxCell>
        <mxCell id="GKdVHdzbGyq1zqF9Dv50-11" value="receive_invoice" style="html=1;dashed=0;whiteSpace=wrap;fontSize=21;fontStyle=1" vertex="1" parent="1">
          <mxGeometry x="270" y="1030" width="180" height="120" as="geometry" />
        </mxCell>
        <mxCell id="GKdVHdzbGyq1zqF9Dv50-12" value="receive_invoice_detail" style="html=1;dashed=0;whiteSpace=wrap;fontSize=21;fontStyle=1" vertex="1" parent="1">
          <mxGeometry x="160" y="760" width="250" height="150" as="geometry" />
        </mxCell>
        <mxCell id="GKdVHdzbGyq1zqF9Dv50-13" value="regulation" style="html=1;dashed=0;whiteSpace=wrap;fontSize=21;fontStyle=1" vertex="1" parent="1">
          <mxGeometry x="1570" y="450" width="190" height="100" as="geometry" />
        </mxCell>
        <mxCell id="GKdVHdzbGyq1zqF9Dv50-14" value="regulation_hostels" style="html=1;dashed=0;whiteSpace=wrap;fontSize=21;fontStyle=1" vertex="1" parent="1">
          <mxGeometry x="1650" y="595" width="210" height="90" as="geometry" />
        </mxCell>
        <mxCell id="GKdVHdzbGyq1zqF9Dv50-15" value="role" style="html=1;dashed=0;whiteSpace=wrap;fontSize=21;fontStyle=1" vertex="1" parent="1">
          <mxGeometry x="570" y="800" width="100" height="50" as="geometry" />
        </mxCell>
        <mxCell id="GKdVHdzbGyq1zqF9Dv50-16" value="room" style="html=1;dashed=0;whiteSpace=wrap;fontSize=21;fontStyle=1" vertex="1" parent="1">
          <mxGeometry x="1450" y="1260" width="170" height="90" as="geometry" />
        </mxCell>
        <mxCell id="GKdVHdzbGyq1zqF9Dv50-17" value="room_type" style="html=1;dashed=0;whiteSpace=wrap;fontSize=21;fontStyle=1" vertex="1" parent="1">
          <mxGeometry x="1700" y="1482.5" width="187.5" height="90" as="geometry" />
        </mxCell>
        <mxCell id="GKdVHdzbGyq1zqF9Dv50-18" value="room_utilities" style="html=1;dashed=0;whiteSpace=wrap;fontSize=21;fontStyle=1" vertex="1" parent="1">
          <mxGeometry x="1820" y="1270" width="170" height="100" as="geometry" />
        </mxCell>
        <mxCell id="GKdVHdzbGyq1zqF9Dv50-19" value="security_deposit" style="html=1;dashed=0;whiteSpace=wrap;fontSize=21;fontStyle=1" vertex="1" parent="1">
          <mxGeometry x="545" y="1492.5" width="205" height="130" as="geometry" />
        </mxCell>
        <mxCell id="GKdVHdzbGyq1zqF9Dv50-20" value="user" style="html=1;dashed=0;whiteSpace=wrap;fontSize=21;fontStyle=1;rotation=0;" vertex="1" parent="1">
          <mxGeometry x="810" y="1100" width="100" height="50" as="geometry" />
        </mxCell>
        <mxCell id="GKdVHdzbGyq1zqF9Dv50-21" value="user_roles" style="html=1;dashed=0;whiteSpace=wrap;fontSize=21;fontStyle=1" vertex="1" parent="1">
          <mxGeometry x="680" y="910" width="130" height="70" as="geometry" />
        </mxCell>
        <mxCell id="GKdVHdzbGyq1zqF9Dv50-22" value="utilities" style="html=1;dashed=0;whiteSpace=wrap;fontSize=21;fontStyle=1" vertex="1" parent="1">
          <mxGeometry x="1840" y="1135" width="130" height="70" as="geometry" />
        </mxCell>
        <mxCell id="GKdVHdzbGyq1zqF9Dv50-23" value="" style="fontSize=12;html=1;endArrow=ERzeroToMany;startArrow=ERmandOne;rounded=0;entryX=0.5;entryY=1;entryDx=0;entryDy=0;exitX=0.75;exitY=1;exitDx=0;exitDy=0;" edge="1" parent="1" source="GKdVHdzbGyq1zqF9Dv50-20" target="GKdVHdzbGyq1zqF9Dv50-21">
          <mxGeometry width="100" height="100" relative="1" as="geometry">
            <mxPoint x="1320" y="1280" as="sourcePoint" />
            <mxPoint x="1980" y="1435" as="targetPoint" />
          </mxGeometry>
        </mxCell>
        <mxCell id="GKdVHdzbGyq1zqF9Dv50-24" value="is assigned" style="edgeLabel;html=1;align=center;verticalAlign=middle;resizable=0;points=[];fontSize=16;" vertex="1" connectable="0" parent="GKdVHdzbGyq1zqF9Dv50-23">
          <mxGeometry x="-0.2172" y="1" relative="1" as="geometry">
            <mxPoint x="-19" y="-34" as="offset" />
          </mxGeometry>
        </mxCell>
        <mxCell id="GKdVHdzbGyq1zqF9Dv50-25" value="" style="fontSize=12;html=1;endArrow=ERzeroToMany;startArrow=ERmandOne;rounded=0;entryX=0.5;entryY=0;entryDx=0;entryDy=0;exitX=1;exitY=1;exitDx=0;exitDy=0;jumpStyle=line;" edge="1" parent="1" source="GKdVHdzbGyq1zqF9Dv50-15" target="GKdVHdzbGyq1zqF9Dv50-21">
          <mxGeometry width="100" height="100" relative="1" as="geometry">
            <mxPoint x="1495" y="1365" as="sourcePoint" />
            <mxPoint x="1525" y="1210" as="targetPoint" />
          </mxGeometry>
        </mxCell>
        <mxCell id="GKdVHdzbGyq1zqF9Dv50-26" value="having" style="edgeLabel;html=1;align=center;verticalAlign=middle;resizable=0;points=[];fontSize=16;" vertex="1" connectable="0" parent="GKdVHdzbGyq1zqF9Dv50-25">
          <mxGeometry x="0.0667" y="-4" relative="1" as="geometry">
            <mxPoint y="-1" as="offset" />
          </mxGeometry>
        </mxCell>
        <mxCell id="GKdVHdzbGyq1zqF9Dv50-27" value="" style="fontSize=12;html=1;endArrow=ERzeroToMany;startArrow=ERmandOne;rounded=0;entryX=1;entryY=0.5;entryDx=0;entryDy=0;exitX=0;exitY=0.5;exitDx=0;exitDy=0;jumpStyle=line;" edge="1" parent="1" source="GKdVHdzbGyq1zqF9Dv50-17" target="GKdVHdzbGyq1zqF9Dv50-16">
          <mxGeometry width="100" height="100" relative="1" as="geometry">
            <mxPoint x="1470" y="1075" as="sourcePoint" />
            <mxPoint x="1555" y="945" as="targetPoint" />
          </mxGeometry>
        </mxCell>
        <mxCell id="GKdVHdzbGyq1zqF9Dv50-28" value="is assigned" style="edgeLabel;html=1;align=center;verticalAlign=middle;resizable=0;points=[];fontSize=16;" vertex="1" connectable="0" parent="GKdVHdzbGyq1zqF9Dv50-27">
          <mxGeometry x="-0.1042" y="-1" relative="1" as="geometry">
            <mxPoint y="1" as="offset" />
          </mxGeometry>
        </mxCell>
        <mxCell id="GKdVHdzbGyq1zqF9Dv50-29" value="" style="fontSize=12;html=1;endArrow=ERzeroToMany;startArrow=ERmandOne;rounded=0;entryX=0;entryY=0.5;entryDx=0;entryDy=0;exitX=1;exitY=0.25;exitDx=0;exitDy=0;" edge="1" parent="1" source="GKdVHdzbGyq1zqF9Dv50-16" target="GKdVHdzbGyq1zqF9Dv50-18">
          <mxGeometry width="100" height="100" relative="1" as="geometry">
            <mxPoint x="1330" y="1145" as="sourcePoint" />
            <mxPoint x="1870" y="1275" as="targetPoint" />
          </mxGeometry>
        </mxCell>
        <mxCell id="GKdVHdzbGyq1zqF9Dv50-30" value="is assigned" style="edgeLabel;html=1;align=center;verticalAlign=middle;resizable=0;points=[];fontSize=16;" vertex="1" connectable="0" parent="GKdVHdzbGyq1zqF9Dv50-29">
          <mxGeometry x="-0.2038" y="-5" relative="1" as="geometry">
            <mxPoint as="offset" />
          </mxGeometry>
        </mxCell>
        <mxCell id="GKdVHdzbGyq1zqF9Dv50-31" value="" style="fontSize=12;html=1;endArrow=ERzeroToMany;startArrow=ERmandOne;rounded=0;entryX=0.5;entryY=0;entryDx=0;entryDy=0;exitX=0.5;exitY=1;exitDx=0;exitDy=0;" edge="1" parent="1" source="GKdVHdzbGyq1zqF9Dv50-22" target="GKdVHdzbGyq1zqF9Dv50-18">
          <mxGeometry width="100" height="100" relative="1" as="geometry">
            <mxPoint x="1655" y="1035" as="sourcePoint" />
            <mxPoint x="1800" y="915" as="targetPoint" />
          </mxGeometry>
        </mxCell>
        <mxCell id="GKdVHdzbGyq1zqF9Dv50-32" value="having" style="edgeLabel;html=1;align=center;verticalAlign=middle;resizable=0;points=[];fontSize=16;" vertex="1" connectable="0" parent="GKdVHdzbGyq1zqF9Dv50-31">
          <mxGeometry x="-0.1487" y="-2" relative="1" as="geometry">
            <mxPoint y="-1" as="offset" />
          </mxGeometry>
        </mxCell>
        <mxCell id="GKdVHdzbGyq1zqF9Dv50-33" value="" style="fontSize=12;html=1;endArrow=ERzeroToMany;startArrow=ERmandOne;rounded=0;entryX=0;entryY=0.5;entryDx=0;entryDy=0;exitX=1;exitY=0.5;exitDx=0;exitDy=0;" edge="1" parent="1" source="GKdVHdzbGyq1zqF9Dv50-4" target="GKdVHdzbGyq1zqF9Dv50-6">
          <mxGeometry width="100" height="100" relative="1" as="geometry">
            <mxPoint x="1665" y="1045" as="sourcePoint" />
            <mxPoint x="1810" y="925" as="targetPoint" />
          </mxGeometry>
        </mxCell>
        <mxCell id="GKdVHdzbGyq1zqF9Dv50-34" value="is assigned" style="edgeLabel;html=1;align=center;verticalAlign=middle;resizable=0;points=[];fontSize=16;" vertex="1" connectable="0" parent="GKdVHdzbGyq1zqF9Dv50-33">
          <mxGeometry x="0.0514" y="1" relative="1" as="geometry">
            <mxPoint as="offset" />
          </mxGeometry>
        </mxCell>
        <mxCell id="GKdVHdzbGyq1zqF9Dv50-35" value="" style="fontSize=12;html=1;endArrow=ERzeroToMany;startArrow=ERmandOne;rounded=0;entryX=0.5;entryY=1;entryDx=0;entryDy=0;exitX=0.5;exitY=0;exitDx=0;exitDy=0;" edge="1" parent="1" source="GKdVHdzbGyq1zqF9Dv50-22" target="GKdVHdzbGyq1zqF9Dv50-6">
          <mxGeometry width="100" height="100" relative="1" as="geometry">
            <mxPoint x="1675" y="1055" as="sourcePoint" />
            <mxPoint x="1820" y="935" as="targetPoint" />
          </mxGeometry>
        </mxCell>
        <mxCell id="GKdVHdzbGyq1zqF9Dv50-36" value="having" style="edgeLabel;html=1;align=center;verticalAlign=middle;resizable=0;points=[];fontSize=16;" vertex="1" connectable="0" parent="GKdVHdzbGyq1zqF9Dv50-35">
          <mxGeometry x="-0.1088" relative="1" as="geometry">
            <mxPoint y="-1" as="offset" />
          </mxGeometry>
        </mxCell>
        <mxCell id="GKdVHdzbGyq1zqF9Dv50-37" value="" style="fontSize=12;html=1;endArrow=ERzeroToMany;startArrow=ERmandOne;rounded=0;entryX=0.25;entryY=0;entryDx=0;entryDy=0;exitX=0.5;exitY=1;exitDx=0;exitDy=0;" edge="1" parent="1" source="GKdVHdzbGyq1zqF9Dv50-4" target="GKdVHdzbGyq1zqF9Dv50-16">
          <mxGeometry width="100" height="100" relative="1" as="geometry">
            <mxPoint x="1685" y="1065" as="sourcePoint" />
            <mxPoint x="1830" y="945" as="targetPoint" />
          </mxGeometry>
        </mxCell>
        <mxCell id="GKdVHdzbGyq1zqF9Dv50-38" value="" style="fontSize=12;html=1;endArrow=ERzeroToMany;startArrow=ERmandOne;rounded=0;entryX=0.5;entryY=1;entryDx=0;entryDy=0;exitX=0.5;exitY=0;exitDx=0;exitDy=0;" edge="1" parent="1" source="GKdVHdzbGyq1zqF9Dv50-4" target="GKdVHdzbGyq1zqF9Dv50-14">
          <mxGeometry width="100" height="100" relative="1" as="geometry">
            <mxPoint x="1780" y="775" as="sourcePoint" />
            <mxPoint x="2070" y="780" as="targetPoint" />
          </mxGeometry>
        </mxCell>
        <mxCell id="GKdVHdzbGyq1zqF9Dv50-39" value="is assign to" style="edgeLabel;html=1;align=center;verticalAlign=middle;resizable=0;points=[];fontSize=16;" vertex="1" connectable="0" parent="GKdVHdzbGyq1zqF9Dv50-38">
          <mxGeometry x="-0.2613" relative="1" as="geometry">
            <mxPoint y="-1" as="offset" />
          </mxGeometry>
        </mxCell>
        <mxCell id="GKdVHdzbGyq1zqF9Dv50-40" value="" style="fontSize=12;html=1;endArrow=ERzeroToMany;startArrow=ERmandOne;rounded=0;entryX=0.5;entryY=0;entryDx=0;entryDy=0;exitX=0.5;exitY=1;exitDx=0;exitDy=0;" edge="1" parent="1" source="GKdVHdzbGyq1zqF9Dv50-13" target="GKdVHdzbGyq1zqF9Dv50-14">
          <mxGeometry width="100" height="100" relative="1" as="geometry">
            <mxPoint x="1790" y="785" as="sourcePoint" />
            <mxPoint x="2080" y="790" as="targetPoint" />
          </mxGeometry>
        </mxCell>
        <mxCell id="GKdVHdzbGyq1zqF9Dv50-41" value="having" style="edgeLabel;html=1;align=center;verticalAlign=middle;resizable=0;points=[];" vertex="1" connectable="0" parent="GKdVHdzbGyq1zqF9Dv50-40">
          <mxGeometry x="-0.2207" y="1" relative="1" as="geometry">
            <mxPoint x="-1" as="offset" />
          </mxGeometry>
        </mxCell>
        <mxCell id="GKdVHdzbGyq1zqF9Dv50-42" value="" style="fontSize=12;html=1;endArrow=ERzeroToMany;startArrow=ERmandOne;rounded=0;entryX=0.25;entryY=0;entryDx=0;entryDy=0;exitX=0.5;exitY=1;exitDx=0;exitDy=0;" edge="1" parent="1" source="GKdVHdzbGyq1zqF9Dv50-5" target="GKdVHdzbGyq1zqF9Dv50-4">
          <mxGeometry width="100" height="100" relative="1" as="geometry">
            <mxPoint x="1800" y="795" as="sourcePoint" />
            <mxPoint x="2090" y="800" as="targetPoint" />
          </mxGeometry>
        </mxCell>
        <mxCell id="GKdVHdzbGyq1zqF9Dv50-43" value="is assigned" style="edgeLabel;html=1;align=center;verticalAlign=middle;resizable=0;points=[];fontSize=16;" vertex="1" connectable="0" parent="GKdVHdzbGyq1zqF9Dv50-42">
          <mxGeometry x="-0.0011" y="-2" relative="1" as="geometry">
            <mxPoint as="offset" />
          </mxGeometry>
        </mxCell>
        <mxCell id="GKdVHdzbGyq1zqF9Dv50-44" value="" style="fontSize=12;html=1;endArrow=ERzeroToMany;startArrow=ERmandOne;rounded=0;entryX=0.5;entryY=0;entryDx=0;entryDy=0;exitX=0.25;exitY=1;exitDx=0;exitDy=0;" edge="1" parent="1" source="GKdVHdzbGyq1zqF9Dv50-2" target="GKdVHdzbGyq1zqF9Dv50-3">
          <mxGeometry width="100" height="100" relative="1" as="geometry">
            <mxPoint x="1130" y="1287.5" as="sourcePoint" />
            <mxPoint x="1220" y="1207.5" as="targetPoint" />
          </mxGeometry>
        </mxCell>
        <mxCell id="GKdVHdzbGyq1zqF9Dv50-45" value="is part of" style="edgeLabel;html=1;align=center;verticalAlign=middle;resizable=0;points=[];fontSize=16;" vertex="1" connectable="0" parent="GKdVHdzbGyq1zqF9Dv50-44">
          <mxGeometry x="-0.0385" y="-1" relative="1" as="geometry">
            <mxPoint as="offset" />
          </mxGeometry>
        </mxCell>
        <mxCell id="GKdVHdzbGyq1zqF9Dv50-46" value="" style="fontSize=12;html=1;endArrow=ERzeroToMany;startArrow=ERmandOne;rounded=0;entryX=0.5;entryY=0;entryDx=0;entryDy=0;exitX=0.25;exitY=1;exitDx=0;exitDy=0;" edge="1" parent="1" source="GKdVHdzbGyq1zqF9Dv50-16" target="GKdVHdzbGyq1zqF9Dv50-10">
          <mxGeometry width="100" height="100" relative="1" as="geometry">
            <mxPoint x="1320" y="1265" as="sourcePoint" />
            <mxPoint x="1410" y="1185" as="targetPoint" />
          </mxGeometry>
        </mxCell>
        <mxCell id="GKdVHdzbGyq1zqF9Dv50-47" value="Having" style="edgeLabel;html=1;align=center;verticalAlign=middle;resizable=0;points=[];fontSize=16;" vertex="1" connectable="0" parent="GKdVHdzbGyq1zqF9Dv50-46">
          <mxGeometry x="-0.1881" y="-6" relative="1" as="geometry">
            <mxPoint as="offset" />
          </mxGeometry>
        </mxCell>
        <mxCell id="GKdVHdzbGyq1zqF9Dv50-48" value="" style="fontSize=12;html=1;endArrow=ERzeroToMany;startArrow=ERmandOne;rounded=0;entryX=0.5;entryY=1;entryDx=0;entryDy=0;exitX=0.5;exitY=0;exitDx=0;exitDy=0;" edge="1" parent="1" source="GKdVHdzbGyq1zqF9Dv50-7" target="GKdVHdzbGyq1zqF9Dv50-8">
          <mxGeometry width="100" height="100" relative="1" as="geometry">
            <mxPoint x="660" y="315" as="sourcePoint" />
            <mxPoint x="782" y="430" as="targetPoint" />
          </mxGeometry>
        </mxCell>
        <mxCell id="GKdVHdzbGyq1zqF9Dv50-49" value="is part of" style="edgeLabel;html=1;align=center;verticalAlign=middle;resizable=0;points=[];fontSize=16;" vertex="1" connectable="0" parent="GKdVHdzbGyq1zqF9Dv50-48">
          <mxGeometry x="0.0868" relative="1" as="geometry">
            <mxPoint as="offset" />
          </mxGeometry>
        </mxCell>
        <mxCell id="GKdVHdzbGyq1zqF9Dv50-50" value="" style="fontSize=12;html=1;endArrow=ERzeroToMany;startArrow=ERmandOne;rounded=0;entryX=0.5;entryY=1;entryDx=0;entryDy=0;exitX=0.5;exitY=0;exitDx=0;exitDy=0;" edge="1" parent="1" source="GKdVHdzbGyq1zqF9Dv50-11" target="GKdVHdzbGyq1zqF9Dv50-12">
          <mxGeometry width="100" height="100" relative="1" as="geometry">
            <mxPoint x="710" y="895" as="sourcePoint" />
            <mxPoint x="832" y="1010" as="targetPoint" />
          </mxGeometry>
        </mxCell>
        <mxCell id="GKdVHdzbGyq1zqF9Dv50-51" value="is part of" style="edgeLabel;html=1;align=center;verticalAlign=middle;resizable=0;points=[];fontSize=16;" vertex="1" connectable="0" parent="GKdVHdzbGyq1zqF9Dv50-50">
          <mxGeometry x="0.0697" y="2" relative="1" as="geometry">
            <mxPoint x="-1" as="offset" />
          </mxGeometry>
        </mxCell>
        <mxCell id="GKdVHdzbGyq1zqF9Dv50-52" value="" style="fontSize=12;html=1;endArrow=ERmandOne;startArrow=ERmandOne;rounded=0;entryX=0.5;entryY=0;entryDx=0;entryDy=0;exitX=0.75;exitY=1;exitDx=0;exitDy=0;" edge="1" parent="1" source="GKdVHdzbGyq1zqF9Dv50-2" target="GKdVHdzbGyq1zqF9Dv50-19">
          <mxGeometry width="100" height="100" relative="1" as="geometry">
            <mxPoint x="760" y="1567.5" as="sourcePoint" />
            <mxPoint x="950" y="687.5" as="targetPoint" />
            <Array as="points" />
          </mxGeometry>
        </mxCell>
        <mxCell id="GKdVHdzbGyq1zqF9Dv50-53" value="having" style="edgeLabel;html=1;align=center;verticalAlign=middle;resizable=0;points=[];fontSize=16;" vertex="1" connectable="0" parent="GKdVHdzbGyq1zqF9Dv50-52">
          <mxGeometry x="-0.2125" y="2" relative="1" as="geometry">
            <mxPoint x="1" as="offset" />
          </mxGeometry>
        </mxCell>
        <mxCell id="GKdVHdzbGyq1zqF9Dv50-54" value="" style="fontSize=12;html=1;endArrow=ERzeroToMany;startArrow=ERmandOne;rounded=0;entryX=0.5;entryY=1;entryDx=0;entryDy=0;exitX=0.5;exitY=0;exitDx=0;exitDy=0;" edge="1" parent="1" source="GKdVHdzbGyq1zqF9Dv50-2" target="GKdVHdzbGyq1zqF9Dv50-11">
          <mxGeometry width="100" height="100" relative="1" as="geometry">
            <mxPoint x="783" y="1330" as="sourcePoint" />
            <mxPoint x="708" y="1210" as="targetPoint" />
          </mxGeometry>
        </mxCell>
        <mxCell id="GKdVHdzbGyq1zqF9Dv50-55" value="depend on" style="edgeLabel;html=1;align=center;verticalAlign=middle;resizable=0;points=[];fontSize=16;" vertex="1" connectable="0" parent="GKdVHdzbGyq1zqF9Dv50-54">
          <mxGeometry x="-0.0048" y="-3" relative="1" as="geometry">
            <mxPoint as="offset" />
          </mxGeometry>
        </mxCell>
        <mxCell id="GKdVHdzbGyq1zqF9Dv50-56" value="" style="fontSize=12;html=1;endArrow=ERzeroToMany;startArrow=ERzeroToOne;rounded=0;exitX=0.25;exitY=1;exitDx=0;exitDy=0;entryX=1;entryY=0.5;entryDx=0;entryDy=0;" edge="1" parent="1" source="GKdVHdzbGyq1zqF9Dv50-20" target="GKdVHdzbGyq1zqF9Dv50-2">
          <mxGeometry width="100" height="100" relative="1" as="geometry">
            <mxPoint x="1290" y="1210" as="sourcePoint" />
            <mxPoint x="1390" y="1110" as="targetPoint" />
          </mxGeometry>
        </mxCell>
        <mxCell id="GKdVHdzbGyq1zqF9Dv50-76" value="is sign" style="edgeLabel;html=1;align=center;verticalAlign=middle;resizable=0;points=[];fontSize=16;" vertex="1" connectable="0" parent="GKdVHdzbGyq1zqF9Dv50-56">
          <mxGeometry x="-0.0386" y="1" relative="1" as="geometry">
            <mxPoint as="offset" />
          </mxGeometry>
        </mxCell>
        <mxCell id="GKdVHdzbGyq1zqF9Dv50-57" value="" style="fontSize=12;html=1;endArrow=ERzeroToMany;startArrow=ERmandOne;rounded=0;entryX=1;entryY=0.5;entryDx=0;entryDy=0;exitX=0;exitY=0.5;exitDx=0;exitDy=0;" edge="1" parent="1" source="GKdVHdzbGyq1zqF9Dv50-4" target="GKdVHdzbGyq1zqF9Dv50-7">
          <mxGeometry width="100" height="100" relative="1" as="geometry">
            <mxPoint x="1260" y="1317.5" as="sourcePoint" />
            <mxPoint x="1240" y="1047.5" as="targetPoint" />
          </mxGeometry>
        </mxCell>
        <mxCell id="GKdVHdzbGyq1zqF9Dv50-58" value="" style="fontSize=12;html=1;endArrow=ERzeroToMany;startArrow=ERmandOne;rounded=0;entryX=0.75;entryY=1;entryDx=0;entryDy=0;exitX=0;exitY=0.25;exitDx=0;exitDy=0;" edge="1" parent="1" source="GKdVHdzbGyq1zqF9Dv50-16" target="GKdVHdzbGyq1zqF9Dv50-7">
          <mxGeometry width="100" height="100" relative="1" as="geometry">
            <mxPoint x="1170" y="875" as="sourcePoint" />
            <mxPoint x="1150" y="605" as="targetPoint" />
          </mxGeometry>
        </mxCell>
        <mxCell id="GKdVHdzbGyq1zqF9Dv50-59" value="having" style="edgeLabel;html=1;align=center;verticalAlign=middle;resizable=0;points=[];fontSize=16;" vertex="1" connectable="0" parent="GKdVHdzbGyq1zqF9Dv50-58">
          <mxGeometry x="-0.0253" relative="1" as="geometry">
            <mxPoint x="-1" as="offset" />
          </mxGeometry>
        </mxCell>
        <mxCell id="GKdVHdzbGyq1zqF9Dv50-60" value="" style="fontSize=12;html=1;endArrow=ERmandOne;startArrow=ERmandOne;rounded=0;entryX=0;entryY=0.5;entryDx=0;entryDy=0;exitX=1;exitY=0.75;exitDx=0;exitDy=0;" edge="1" parent="1" source="GKdVHdzbGyq1zqF9Dv50-2" target="GKdVHdzbGyq1zqF9Dv50-16">
          <mxGeometry width="100" height="100" relative="1" as="geometry">
            <mxPoint x="516" y="1423" as="sourcePoint" />
            <mxPoint x="658" y="1503" as="targetPoint" />
          </mxGeometry>
        </mxCell>
        <mxCell id="GKdVHdzbGyq1zqF9Dv50-61" value="is signed to" style="edgeLabel;html=1;align=center;verticalAlign=middle;resizable=0;points=[];fontSize=16;" vertex="1" connectable="0" parent="GKdVHdzbGyq1zqF9Dv50-60">
          <mxGeometry x="0.0842" y="1" relative="1" as="geometry">
            <mxPoint as="offset" />
          </mxGeometry>
        </mxCell>
        <mxCell id="GKdVHdzbGyq1zqF9Dv50-62" value="" style="fontSize=12;html=1;endArrow=ERzeroToMany;startArrow=ERmandOne;rounded=0;entryX=1;entryY=0.5;entryDx=0;entryDy=0;exitX=0;exitY=0.25;exitDx=0;exitDy=0;" edge="1" parent="1" source="GKdVHdzbGyq1zqF9Dv50-20" target="GKdVHdzbGyq1zqF9Dv50-11">
          <mxGeometry width="100" height="100" relative="1" as="geometry">
            <mxPoint x="1080" y="1180" as="sourcePoint" />
            <mxPoint x="1180" y="1080" as="targetPoint" />
          </mxGeometry>
        </mxCell>
        <mxCell id="GKdVHdzbGyq1zqF9Dv50-69" value="is responsible to" style="edgeLabel;html=1;align=center;verticalAlign=middle;resizable=0;points=[];" vertex="1" connectable="0" parent="GKdVHdzbGyq1zqF9Dv50-62">
          <mxGeometry x="-0.013" y="1" relative="1" as="geometry">
            <mxPoint x="1" as="offset" />
          </mxGeometry>
        </mxCell>
        <mxCell id="GKdVHdzbGyq1zqF9Dv50-63" value="" style="fontSize=12;html=1;endArrow=ERzeroToMany;startArrow=ERmandOne;rounded=0;entryX=0.25;entryY=1;entryDx=0;entryDy=0;exitX=1;exitY=0;exitDx=0;exitDy=0;" edge="1" parent="1" source="GKdVHdzbGyq1zqF9Dv50-20" target="GKdVHdzbGyq1zqF9Dv50-7">
          <mxGeometry width="100" height="100" relative="1" as="geometry">
            <mxPoint x="820" y="1132" as="sourcePoint" />
            <mxPoint x="460" y="1100" as="targetPoint" />
          </mxGeometry>
        </mxCell>
        <mxCell id="GKdVHdzbGyq1zqF9Dv50-64" value="" style="fontSize=12;html=1;endArrow=ERzeroToMany;startArrow=ERzeroToOne;rounded=0;exitX=1;exitY=0.5;exitDx=0;exitDy=0;entryX=0;entryY=0.75;entryDx=0;entryDy=0;" edge="1" parent="1" source="GKdVHdzbGyq1zqF9Dv50-20" target="GKdVHdzbGyq1zqF9Dv50-4">
          <mxGeometry width="100" height="100" relative="1" as="geometry">
            <mxPoint x="1110" y="1050" as="sourcePoint" />
            <mxPoint x="1210" y="950" as="targetPoint" />
          </mxGeometry>
        </mxCell>
        <mxCell id="GKdVHdzbGyq1zqF9Dv50-65" value="manage" style="edgeLabel;html=1;align=center;verticalAlign=middle;resizable=0;points=[];fontSize=16;" vertex="1" connectable="0" parent="GKdVHdzbGyq1zqF9Dv50-64">
          <mxGeometry x="-0.0523" relative="1" as="geometry">
            <mxPoint as="offset" />
          </mxGeometry>
        </mxCell>
        <mxCell id="GKdVHdzbGyq1zqF9Dv50-66" value="" style="fontSize=12;html=1;endArrow=ERzeroToMany;startArrow=ERmandOne;rounded=0;entryX=1;entryY=0;entryDx=0;entryDy=0;exitX=0;exitY=1;exitDx=0;exitDy=0;" edge="1" parent="1" source="GKdVHdzbGyq1zqF9Dv50-16" target="GKdVHdzbGyq1zqF9Dv50-1">
          <mxGeometry width="100" height="100" relative="1" as="geometry">
            <mxPoint x="1503" y="1360" as="sourcePoint" />
            <mxPoint x="1515" y="1503" as="targetPoint" />
          </mxGeometry>
        </mxCell>
        <mxCell id="GKdVHdzbGyq1zqF9Dv50-67" value="Having" style="edgeLabel;html=1;align=center;verticalAlign=middle;resizable=0;points=[];fontSize=16;" vertex="1" connectable="0" parent="GKdVHdzbGyq1zqF9Dv50-66">
          <mxGeometry x="-0.1881" y="-6" relative="1" as="geometry">
            <mxPoint as="offset" />
          </mxGeometry>
        </mxCell>
        <mxCell id="GKdVHdzbGyq1zqF9Dv50-68" value="" style="fontSize=12;html=1;endArrow=ERzeroToMany;startArrow=ERmandOne;rounded=0;entryX=0.5;entryY=0;entryDx=0;entryDy=0;exitX=1;exitY=1;exitDx=0;exitDy=0;" edge="1" parent="1" source="GKdVHdzbGyq1zqF9Dv50-20" target="GKdVHdzbGyq1zqF9Dv50-9">
          <mxGeometry width="100" height="100" relative="1" as="geometry">
            <mxPoint x="820" y="1123" as="sourcePoint" />
            <mxPoint x="460" y="1100" as="targetPoint" />
          </mxGeometry>
        </mxCell>
        <mxCell id="GKdVHdzbGyq1zqF9Dv50-70" value="having social id" style="edgeLabel;html=1;align=center;verticalAlign=middle;resizable=0;points=[];fontSize=16;" vertex="1" connectable="0" parent="GKdVHdzbGyq1zqF9Dv50-68">
          <mxGeometry x="-0.049" y="-2" relative="1" as="geometry">
            <mxPoint as="offset" />
          </mxGeometry>
        </mxCell>
        <mxCell id="GKdVHdzbGyq1zqF9Dv50-71" value="" style="fontSize=12;html=1;endArrow=ERzeroToMany;startArrow=ERmandOne;rounded=0;entryX=1;entryY=0.5;entryDx=0;entryDy=0;exitX=0;exitY=0.25;exitDx=0;exitDy=0;" edge="1" parent="1" source="GKdVHdzbGyq1zqF9Dv50-16" target="GKdVHdzbGyq1zqF9Dv50-9">
          <mxGeometry width="100" height="100" relative="1" as="geometry">
            <mxPoint x="920" y="1160" as="sourcePoint" />
            <mxPoint x="1190" y="1200" as="targetPoint" />
          </mxGeometry>
        </mxCell>
        <mxCell id="GKdVHdzbGyq1zqF9Dv50-72" value="having&amp;nbsp;" style="edgeLabel;html=1;align=center;verticalAlign=middle;resizable=0;points=[];fontSize=16;" vertex="1" connectable="0" parent="GKdVHdzbGyq1zqF9Dv50-71">
          <mxGeometry x="-0.049" y="-2" relative="1" as="geometry">
            <mxPoint as="offset" />
          </mxGeometry>
        </mxCell>
        <mxCell id="GKdVHdzbGyq1zqF9Dv50-73" value="" style="fontSize=12;html=1;endArrow=ERzeroToMany;startArrow=ERmandOne;rounded=0;entryX=1;entryY=0;entryDx=0;entryDy=0;exitX=0.25;exitY=1;exitDx=0;exitDy=0;" edge="1" parent="1" source="GKdVHdzbGyq1zqF9Dv50-4" target="GKdVHdzbGyq1zqF9Dv50-9">
          <mxGeometry width="100" height="100" relative="1" as="geometry">
            <mxPoint x="1460" y="1293" as="sourcePoint" />
            <mxPoint x="1280" y="1240" as="targetPoint" />
          </mxGeometry>
        </mxCell>
        <mxCell id="GKdVHdzbGyq1zqF9Dv50-74" value="having&amp;nbsp;" style="edgeLabel;html=1;align=center;verticalAlign=middle;resizable=0;points=[];fontSize=16;" vertex="1" connectable="0" parent="GKdVHdzbGyq1zqF9Dv50-73">
          <mxGeometry x="-0.049" y="-2" relative="1" as="geometry">
            <mxPoint as="offset" />
          </mxGeometry>
        </mxCell>
      </root>
    </mxGraphModel>
  </diagram>
</mxfile>
